<?xml version="1.0" encoding="UTF-8" standalone="no"?>
<!DOCTYPE svg PUBLIC "-//W3C//DTD SVG 1.1//EN" "http://www.w3.org/Graphics/SVG/1.1/DTD/svg11.dtd">
<svg width="100%" height="100%" viewBox="0 0 445 437" version="1.1" xmlns="http://www.w3.org/2000/svg" xmlns:xlink="http://www.w3.org/1999/xlink" xml:space="preserve" xmlns:serif="http://www.serif.com/" style="fill-rule:evenodd;clip-rule:evenodd;stroke-linejoin:round;stroke-miterlimit:2;">
    <g transform="matrix(1,0,0,1,-99,-47)">
        <g id="Layer4" transform="matrix(-1.08799,0.0246978,0.0233556,1.02886,866.731,43.0174)">
            <g transform="matrix(-1.01532,0.689946,0.38223,0.628999,779.722,-163.188)">
                <path d="M205,58C233.996,57.348 253.553,68.425 253.553,79.188C253.553,89.95 230.117,103.269 204.177,103.269C178.237,103.269 155.886,91.291 155.886,80.528C155.886,69.766 178.373,58.599 205,58Z" style="fill:rgb(255,226,0);"/>
            </g>
            <g transform="matrix(-0.229001,0.155614,0.119889,0.197289,637.543,-21.6903)">
                <path d="M205,58C233.996,57.348 253.553,68.425 253.553,79.188C253.553,89.95 230.117,103.269 204.177,103.269C178.237,103.269 155.886,91.291 155.886,80.528C155.886,69.766 178.373,58.599 205,58Z" style="fill:rgb(234,191,0);"/>
            </g>
            <g transform="matrix(-0.918656,0.0220525,0.020854,0.971452,795.331,-60.9029)">
                <path d="M209,81C211.292,85.557 215.628,87.053 221,87C221,87 220.721,84.481 217,82C214,80 209,81 209,81Z" style="fill:rgb(0,1,15);"/>
            </g>
            <g transform="matrix(-0.918656,0.0220525,0.020854,0.971452,795.331,-60.9029)">
                <path d="M211,77L209,81C214,80 219,83 221,87L222,84C219.005,81.439 215.294,79.12 211,77Z" style="fill:rgb(0,1,15);"/>
            </g>
            <g transform="matrix(-0.918656,0.0220525,0.020854,0.971452,795.331,-60.9029)">
                <path d="M215,83.876L201,105L209,117L209,238L217,238.736L214,117C210.518,112.358 205.035,103.811 205.035,103.811L215.5,86.342L215,83.876Z" style="fill:rgb(0,1,15);"/>
            </g>
        </g>
        <g id="Layer6">
            <path d="M451,348L470,349L470,352L450,352L451,348Z" style="fill:rgb(0,1,15);"/>
            <path d="M457.092,336.557L471,351L473.71,348L458,332.802L457.092,336.557Z" style="fill:rgb(0,1,15);"/>
            <path d="M471.95,348L507,346L509,350.5L472.519,351L471.95,348Z" style="fill:rgb(0,1,15);"/>
            <path d="M464,317L458,330L447,370C447.51,371.015 448.587,371.24 450,371L450,368L465.401,314L464,317Z" style="fill:rgb(0,1,15);"/>
            <path d="M476,307L481.449,307L493,320L528,393L529,400C531.667,401.095 534.333,401.416 537,401L536,397L534,397L531,392L497,319L484,305L483,302L476,300L469,300L468,306L460,318L435,383L436,388L463,319L470,308L476,307Z" style="fill:rgb(0,1,15);"/>
            <path d="M478,214.5L469,351L475,351L481.248,216.641L478,214.5Z" style="fill:rgb(0,1,15);"/>
            <path d="M476.919,211.726L476.797,217.665C479.804,216.947 480.091,217.215 482,218L483,210L477,210L476.919,211.726Z" style="fill:rgb(0,1,15);"/>
            <path d="M482,155L479.958,207.838L481,207.838L483,155L482,155Z" style="fill:rgb(0,1,15);"/>
            <path d="M446,189L468,188L474.923,185C479,186 482.974,185.94 487,185L494,189C510.84,190.325 519.223,192.411 522,195C493.685,197.616 468.542,194.769 441.666,193.531L446,189Z" style="fill:rgb(255,227,0);"/>
            <g transform="matrix(1,0,0,-1,-1,394.838)">
                <path d="M446,191L468,190L474.923,187C479,188 482.974,187.94 487,187L494,191C510.84,192.325 519.223,192.411 522,195C498.079,197.073 468.858,198.92 443.679,196.767L446,191Z" style="fill:rgb(255,227,0);"/>
            </g>
            <path d="M475,181C475,181 479.165,180 481.248,180C483.331,180 487.496,181 487.496,181L482,183.458L475,181Z" style="fill:white;"/>
            <path d="M475,181L475,185C479.067,186.171 483.241,186.168 487.496,185.284L487.496,181C483.676,181.354 479.164,181.323 475,181Z" style="fill:rgb(0,1,15);"/>
            <g transform="matrix(1,0,0,-1,-1.29016,392.916)">
                <path d="M475,181L475,185C479.067,186.171 483.241,186.168 487.496,185.284L487,181C483.18,181.354 479.164,181.323 475,181Z" style="fill:rgb(0,1,15);"/>
            </g>
            <path d="M479,181.729L479,172L484,172L483.866,181.218L479,181.729Z" style="fill:rgb(0,1,15);"/>
        </g>
        <g id="Layer7">
            <path d="M264.48,413.773L251,421.411L237,462L234.738,461L231,472C232.87,474.467 235.502,475.213 239,474L240,463L254,425L267.648,418L264.48,413.773Z" style="fill:rgb(0,1,15);"/>
            <g transform="matrix(1,0,0,1,-2.60271,-1.8016)">
                <path d="M428,423L437.37,429L450,467L449,469L450,477C453.691,479.698 457.358,479.406 461,476L456,467L454,466L441.897,428L430.235,418L428,423Z" style="fill:rgb(0,1,15);"/>
            </g>
            <g transform="matrix(1,0,0,1.09211,0,-18.1447)">
                <path d="M370,197L362,197.958L361,202L356,212.809L355,228L355,265L353,265L353,272L364,273L364,266L362,265L363,229L371,214.5L370,197Z" style="fill:rgb(0,1,15);"/>
            </g>
            <g transform="matrix(-1,0,0,1.09211,698,-18.1447)">
                <path d="M370,197L362,197.958L361,202L356,212.809L355,228L355,265L353,265L353,272L364,273L364,266L362,265L363,229L371,214.5L370,197Z" style="fill:rgb(0,1,15);"/>
            </g>
            <path d="M393,285L393,286.996L398,287.712L399,290.514L405,290.514L406.5,294L425,294L422,298L427.248,306L426,314L428,314L427.248,322.795L422,329L432.166,346L432.718,337L432.718,315L435.012,314L435.012,306L435,296L438,291.533L463,290.514L467,285L472.519,285L471.95,279L467,278L467,282L462,289L438,290L424,290.514L419,291.533L416,291L414.945,285.738L397,281.455L393,285Z" style="fill:rgb(0,1,15);"/>
            <path d="M209,337L209,341.5L183,356.461L153,387L122,419L106,446L104,446L104,452L114,450L113,447L116,442L115,440L125,423L155,391L184,360L201,350.5L219,349L234,360.798L256,392L261.905,391.913L239,361L222,346L217,343L217,338L209,337Z" style="fill:rgb(0,1,15);"/>
            <path d="M156.42,388L206,408L209,405L209,348L215.5,348L217,406L220,407L256.615,388.691L260.282,393L220,412L206,413L152,391L156.42,388Z" style="fill:rgb(0,1,15);"/>
        </g>
        <g id="Layer1">
            <path d="M178,253L174.485,250.116L170,248C171.274,246.535 171.905,244.021 171,239C199.318,231.084 235.642,231.547 276,239L277,248L265,266.825L178,253Z" style="fill:rgb(48,17,22);"/>
            <g transform="matrix(1,0,0,-1,1,572.825)">
                <path d="M176,253L170,248C171.274,246.535 171.905,244.021 171,239C199.318,231.084 236.5,233.066 276.858,240.519L277,248L265,266.825L176,253Z" style="fill:rgb(48,17,22);"/>
            </g>
            <path d="M174,250L175,316L175,324C193,337 252,336 278.859,320.734L277,248C239.551,255.62 204.71,257.419 174,250Z" style="fill:rgb(216,31,0);"/>
            <g transform="matrix(1,0,0,1,1.50712,0.173858)">
                <path d="M174,241C183.842,245.374 229,248 260,243C259.825,237.07 234.459,235.205 210,236C190.407,236.637 169.997,239.221 174,241Z" style="fill:rgb(255,249,218);"/>
            </g>
        </g>
        <g id="Layer3">
            <path d="M242,187L289,179L336.919,191.651C336.225,188.913 337.47,186.352 341,184C340,180 332.253,175.397 325,172C299.493,160.054 247,156 241,168C241.168,171.355 239.744,173.98 237,176C237.276,180.551 239.156,184.082 242,187Z" style="fill:rgb(0,1,15);"/>
            <path d="M236,219L242,176C269.761,165.947 301.469,171.108 337,191L331.54,234.972L236,219Z" style="fill:rgb(144,22,79);"/>
            <path d="M230,232C236,246 326,259 332,248L331,244C331.086,242.523 333.438,241.216 337,240C332.869,236.69 334.229,236.502 330,234C316.129,225.792 296.168,219.433 281,222C281,222 270,215 246,217C238.76,217.603 233.667,218.5 231,221C230.466,221.5 227,226 227,226C228.39,227.409 229.46,229.302 230,232Z" style="fill:rgb(0,1,15);"/>
            <path d="M236,230C231.79,231.684 238.876,235.242 246,238C277,250 319.644,250.798 328,247C333.837,244.347 318.407,239.671 310,237C288.747,230.247 246,226 236,230Z" style="fill:rgb(255,249,218);"/>
        </g>
        <g id="Layer5">
            <g transform="matrix(-1.08799,0.0246978,0.0152029,0.669717,868.222,108.699)">
                <path d="M446,194L444,238C419.572,244.924 395.901,244.243 367,236L369,187C401.917,179.774 427.634,182.041 446,194Z" style="fill:rgb(16,152,92);"/>
            </g>
            <g transform="matrix(-1.08799,0.0246978,0.0233556,1.02886,866.731,43.0174)">
                <path d="M369,192C368.219,191.722 366.546,190.362 367,189C368,186 367.827,181.469 367,181C369,179 374.037,178.468 377,178C396,175 433,178 449,185C446.086,188.638 447,195 447,195C426,188 391,185 369,192Z" style="fill:rgb(51,41,43);"/>
            </g>
            <g transform="matrix(-1.07379,0.169693,-0.162329,-0.932448,899.463,381.458)">
                <path d="M368.365,186.696C369.496,185.847 371.351,175.522 369.918,175.806C369.918,175.806 433,178 449,185C446.854,188.797 445.903,191.904 447.987,195.02C437.576,194.057 416.043,192.358 416.043,192.358C411.165,188.335 405.73,187.829 399.833,190.239C399.833,190.239 378.093,187.814 368.365,186.696Z" style="fill:rgb(51,41,43);"/>
            </g>
        </g>
        <g id="Layer41" serif:id="Layer4">
            <path d="M446,194L444,238C419.572,244.924 395.901,244.243 367,236L369,187C401.917,179.774 427.634,182.041 446,194Z" style="fill:rgb(36,122,181);"/>
            <path d="M369,192C368.219,191.722 366.546,190.362 367,189C368,186 367.827,181.469 367,181C369,179 374.037,178.468 377,178C396,175 433,178 449,185C446.086,188.638 447,195 447,195C426,188 391,185 369,192Z" style="fill:rgb(0,1,15);"/>
            <g transform="matrix(0.989985,0.141169,0.141169,-0.989985,-26.0315,366.825)">
                <path d="M368.365,186.696C369.496,185.847 371.351,175.522 369.918,175.806C369.918,175.806 433,178 449,185C446.854,188.797 445.903,191.904 447.987,195.02C437.576,194.057 416.043,192.358 416.043,192.358C411.165,188.335 405.73,187.829 399.833,190.239C399.833,190.239 378.093,187.814 368.365,186.696Z" style="fill:rgb(0,1,15);"/>
            </g>
        </g>
        <g id="Layer2">
            <g transform="matrix(1,0,0,1,0,3)">
                <path d="M271.916,325.001L280.281,308.831C315.864,262.615 367.522,258.77 408.565,305.438L416.745,319.417L271.916,325.001Z" style="fill:rgb(0,139,127);"/>
            </g>
            <g transform="matrix(1.30832,0,0,1.12921,-59.9065,16.2961)">
                <ellipse cx="310.633" cy="319.912" rx="69.456" ry="80.187" style="fill:rgb(0,1,15);"/>
            </g>
            <g transform="matrix(1.24134,0,0,1.04848,-39.1004,40.1861)">
                <ellipse cx="310.633" cy="319.912" rx="69.456" ry="80.187" style="fill:rgb(255,249,218);"/>
            </g>
        </g>
    </g>
</svg>
